{
 "cells": [
  {
   "cell_type": "markdown",
   "id": "bc71c82b",
   "metadata": {},
   "source": [
    "The murder of Roger Ackroyd by Agatha Christie\n",
    "\n",
    "Source https://www.gutenberg.org/ebooks/69087\n",
    "\n",
    "Ref https://en.wikipedia.org/wiki/The_Murder_of_Roger_Ackroyd"
   ]
  },
  {
   "cell_type": "code",
   "execution_count": null,
   "id": "8e0fc48f",
   "metadata": {},
   "outputs": [],
   "source": [
    "# Concept art\n",
    "\n",
    "Summary: \n",
    "\n",
    "Genre: \n",
    "\n",
    "Background: \n",
    "\n",
    "Main charactor:\n",
    "\n",
    "Prompt:\n",
    "Main charactor + Background + Summary\n",
    "--ar 3:2 --no text\n",
    "    \n",
    "19th century, United Kingdom, in the room of wealthy house,\n",
    " a close-up of a hand holding a letter opener or a knife, with a shadowy figure in the background. The hand could be partially obscured by a veil or mist, adding to the sense of mystery and suspense. \n",
    " The background could be a dark and shadowy scene,\n",
    "--ar 3:2 --no text\n",
    "  \n",
    "19th century, United Kingdom, in the room of wealthy house,\n",
    " a close-up of a knife, with a shadowy figure in the background. with sense of mystery and suspense. \n",
    " The background is a dark and shadowy scene.\n",
    "--ar 3:2 --no text\n",
    "    \n",
    "19th century, United Kingdom, in the room of wealthy house,\n",
    "a retired detective, looking thoughtful, with a magnifying glass in hand. \n",
    " The background could be a dark and shadowy scene, , adding to the sense of mystery and suspense.\n",
    " --ar 3:2 --no text   \n",
    "    \n",
    "19th century, United Kingdom, \n",
    "a retired detective, His head the shape of an egg, His moustache was very stiff and military,\n",
    "The neatness of his attire was almost incredible,\n",
    "searching in in the room of wealthy house, with a magnifying glass in hand, looking thoughtful\n",
    "The background is dark and shadowy scene, , adding to the sense of mystery and suspense,\n",
    "--ar 3:2 --no text  \n",
    "\n",
    "19th century, United Kingdom, in the room of wealthy people house,\n",
    "a close-up of a hand holding a knife, with a shadowy figure in the background,\n",
    "the hand visible partially obscured by a veil or mist,\n",
    "The background is dark and shadowy scene, , adding to the sense of mystery and suspense.\n",
    "--ar 3:2 --no text  \n",
    "\n",
    "19th century, United Kingdom, \n",
    "a retired detective , with a magnifying glass in hand, \n",
    "His head has shape of an egg, His moustache was very stiff and military, his attire is neat,\n",
    "searching in in the room of wealthy house, looking thoughtful\n",
    "The background is dark and shadowy scene, , adding to the sense of mystery and suspense.\n",
    "--ar 3:2 --no text \n",
    "    \n",
    "19th century, United Kingdom, \n",
    "a close-up of a knife with blood on the floor in the room of wealthy people house,\n",
    "shadowy figure near by.\n",
    "The background is dark and shadowy scene, , adding to the sense of mystery and suspense.\n",
    "--ar 3:2 --no text     \n"
   ]
  },
  {
   "cell_type": "code",
   "execution_count": null,
   "id": "0229b767",
   "metadata": {},
   "outputs": [],
   "source": [
    "# Youtube description\n",
    "\n",
    "Prompt: Write title, description, and keywords of youtube video of full audiobook of the classic book \"The murder of Roger Ackroyd by Agatha Christie\"\n",
    "    \n",
    "Title: The Murder of Roger Ackroyd by Agatha Christie: Full Audiobook Edition\n",
    "\n",
    "Description: Enter the world of the Queen of Crime, Agatha Christie, with this full audiobook edition of her classic novel \"The Murder of Roger Ackroyd.\" Follow detective Hercule Poirot as he investigates the mysterious death of a wealthy industrialist, uncovering secrets and lies in a twisting plot that will keep you guessing until the very end. Let the skilled narration and atmospheric soundscape transport you to the world of English country houses and deadly secrets.\n",
    "\n",
    "0:00:00 Chapter 1\n",
    "0:09:59 Chaptor 2\n",
    "0:26:00 Chaptor 3\n",
    "0:48:22 Chaptor 4\n",
    "1:18:38 Chaptor 5\n",
    "1:42:35 Chaptor 6\n",
    "1:58:38 Chaptor 7\n",
    "2:24:59 Chaptor 8\n",
    "2:46:35 Chaptor 9\n",
    "3:04:29 Chaptor 10\n",
    "3:32:53 Chaptor 11\n",
    "3:47:37 Chaptor 12\n",
    "4:05:24 Chaptor 13\n",
    "4:18:33 Chaptor 14\n",
    "4:40:00 Chaptor 15\n",
    "4:58:03 Chaptor 16\n",
    "5:17:10 Chaptor 17\n",
    "5:42:36 Chaptor 18\n",
    "5:54:24 Chaptor 19\n",
    "6:13:16 Chaptor 20\n",
    "6:33:04 Chaptor 21\n",
    "6:47:33 Chaptor 22\n",
    "7:02:45 Chaptor 23\n",
    "7:27:07 Chaptor 24\n",
    "7:35:04 Chaptor 25\n",
    "7:48:55 Chaptor 26\n",
    "7:55:39 Chaptor 27\n",
    "        \n",
    "Credits\n",
    "Text: Project Gutenberg https://www.gutenberg.org/ebooks/69087\n",
    "Voice: Google Cloud Text-to-Speech\n",
    "Produced by: The Classic Narrator 2023\n",
    "    \n",
    "Keywords: The Murder of Roger Ackroyd, Agatha Christie, full audiobook, classic literature, mystery, detective, Hercule Poirot, secrets, lies, English country houses, skilled narration, atmospheric soundscape, classic novel.\n"
   ]
  },
  {
   "cell_type": "code",
   "execution_count": 2,
   "id": "77a554fb",
   "metadata": {},
   "outputs": [
    {
     "name": "stdout",
     "output_type": "stream",
     "text": [
      "Generate audio => output.mp3\n"
     ]
    },
    {
     "data": {
      "text/plain": [
       "1"
      ]
     },
     "execution_count": 2,
     "metadata": {},
     "output_type": "execute_result"
    }
   ],
   "source": [
    "# Voice test\n",
    "\n",
    "from TextToAudiobook import *\n",
    "test_tta = TextToAudiobook(\"test\")\n",
    "\n",
    "\n",
    "\n",
    "text = '''\n",
    "<speak>\n",
    "I can trust him. He and Inspector Raglan will manage it between them. I\n",
    "should not like Caroline to know. She is fond of me, and then, too, she\n",
    "is proud.... My death will be a grief to her, but grief passes....\n",
    "</speak>\n",
    "'''\n",
    "\n",
    "# Test voices\n",
    "# voice = texttospeech.VoiceSelectionParams(\n",
    "#     language_code=\"en-GB\",\n",
    "#     name=\"en-GB-Neural2-A\",\n",
    "# )\n",
    "\n",
    "voice = texttospeech.VoiceSelectionParams(\n",
    "    language_code=\"en-GB\",\n",
    "    name=\"en-GB-Neural2-D\",\n",
    ")\n",
    "\n",
    "\n",
    "audio_config = texttospeech.AudioConfig(\n",
    "    audio_encoding=texttospeech.AudioEncoding.MP3,\n",
    "    speaking_rate=0.9\n",
    ")\n",
    "\n",
    "test_tta.synthesize_ssml(text, \"output.mp3\", voice, audio_config)\n",
    "# test_tta.synthesize_text(text, \"output.mp3\", voice, audio_config)\n",
    "\n"
   ]
  },
  {
   "cell_type": "code",
   "execution_count": null,
   "id": "0326b8d9",
   "metadata": {},
   "outputs": [],
   "source": [
    "%load_ext autoreload\n",
    "%reload_ext autoreload\n",
    "%autoreload 2"
   ]
  },
  {
   "cell_type": "code",
   "execution_count": 7,
   "id": "c3793734",
   "metadata": {},
   "outputs": [],
   "source": [
    "# Text to script\n",
    "\n",
    "from TextToAudiobook import *\n",
    "\n",
    "folder_name = \"TheMurderofRogerAckroyd\"\n",
    "file_name = \"69087-1.txt\"\n",
    "\n",
    "test_tta = TextToAudiobook(folder_name, char_limit_per_call=1000)"
   ]
  },
  {
   "cell_type": "code",
   "execution_count": 8,
   "id": "4b63cb09",
   "metadata": {},
   "outputs": [
    {
     "name": "stdout",
     "output_type": "stream",
     "text": [
      "Clean: 10367 lines\n",
      "./TheMurderofRogerAckroyd/project_file/clean/69087-1.txt\n",
      "Tag: 10367 lines\n",
      "./TheMurderofRogerAckroyd/project_file/tag/69087-1.txt\n",
      "Break: 10367 lines\n",
      "./TheMurderofRogerAckroyd/project_file/break/69087-1.txt\n",
      "Split: 505 files\n",
      "./TheMurderofRogerAckroyd/project_file/split/69087-1_txt/\n"
     ]
    }
   ],
   "source": [
    "#1 Clean raw file and copy to clean folder\n",
    "print(test_tta.clean_txt_raw(file_name))\n",
    "\n",
    "#2 Tag speech in clean file and copy to tag folder\n",
    "print(test_tta.tag_txt_clean(file_name))\n",
    "\n",
    "#3 Mark break point by chapter and characters limit\n",
    "print(test_tta.break_txt_tag(file_name))\n",
    "\n",
    "#4 Split into files by chapter and characters break\n",
    "print(test_tta.split_txt_break(file_name))"
   ]
  },
  {
   "cell_type": "code",
   "execution_count": 12,
   "id": "750cd4eb",
   "metadata": {},
   "outputs": [
    {
     "name": "stdout",
     "output_type": "stream",
     "text": [
      "Generate audio => ./TheMurderofRogerAckroyd/project_file/audio/69087-1_txt/0015_009.mp3\n",
      "Generate audio => ./TheMurderofRogerAckroyd/project_file/audio/69087-1_txt/0015_010.mp3\n",
      "Generate audio => ./TheMurderofRogerAckroyd/project_file/audio/69087-1_txt/0015_011.mp3\n",
      "Generate audio => ./TheMurderofRogerAckroyd/project_file/audio/69087-1_txt/0015_012.mp3\n",
      "Generate audio => ./TheMurderofRogerAckroyd/project_file/audio/69087-1_txt/0015_013.mp3\n",
      "Generate audio => ./TheMurderofRogerAckroyd/project_file/audio/69087-1_txt/0015_014.mp3\n",
      "Generate audio => ./TheMurderofRogerAckroyd/project_file/audio/69087-1_txt/0015_015.mp3\n",
      "Generate audio => ./TheMurderofRogerAckroyd/project_file/audio/69087-1_txt/0015_016.mp3\n",
      "Generate audio => ./TheMurderofRogerAckroyd/project_file/audio/69087-1_txt/0015_017.mp3\n",
      "Generate audio => ./TheMurderofRogerAckroyd/project_file/audio/69087-1_txt/0015_018.mp3\n",
      "Generate audio => ./TheMurderofRogerAckroyd/project_file/audio/69087-1_txt/0015_019.mp3\n",
      "Generate audio => ./TheMurderofRogerAckroyd/project_file/audio/69087-1_txt/0016_001.mp3\n",
      "Generate audio => ./TheMurderofRogerAckroyd/project_file/audio/69087-1_txt/0016_002.mp3\n",
      "Generate audio => ./TheMurderofRogerAckroyd/project_file/audio/69087-1_txt/0016_003.mp3\n",
      "Generate audio => ./TheMurderofRogerAckroyd/project_file/audio/69087-1_txt/0016_004.mp3\n",
      "Generate audio => ./TheMurderofRogerAckroyd/project_file/audio/69087-1_txt/0016_005.mp3\n",
      "Generate audio => ./TheMurderofRogerAckroyd/project_file/audio/69087-1_txt/0016_006.mp3\n",
      "Generate audio => ./TheMurderofRogerAckroyd/project_file/audio/69087-1_txt/0016_007.mp3\n",
      "Generate audio => ./TheMurderofRogerAckroyd/project_file/audio/69087-1_txt/0016_008.mp3\n",
      "Generate audio => ./TheMurderofRogerAckroyd/project_file/audio/69087-1_txt/0016_009.mp3\n",
      "Generate audio => ./TheMurderofRogerAckroyd/project_file/audio/69087-1_txt/0016_010.mp3\n",
      "Generate audio => ./TheMurderofRogerAckroyd/project_file/audio/69087-1_txt/0016_011.mp3\n",
      "Generate audio => ./TheMurderofRogerAckroyd/project_file/audio/69087-1_txt/0016_012.mp3\n",
      "Generate audio => ./TheMurderofRogerAckroyd/project_file/audio/69087-1_txt/0016_013.mp3\n",
      "Generate audio => ./TheMurderofRogerAckroyd/project_file/audio/69087-1_txt/0016_014.mp3\n",
      "Generate audio => ./TheMurderofRogerAckroyd/project_file/audio/69087-1_txt/0016_015.mp3\n",
      "Generate audio => ./TheMurderofRogerAckroyd/project_file/audio/69087-1_txt/0016_016.mp3\n",
      "Generate audio => ./TheMurderofRogerAckroyd/project_file/audio/69087-1_txt/0016_017.mp3\n",
      "Generate audio => ./TheMurderofRogerAckroyd/project_file/audio/69087-1_txt/0016_018.mp3\n",
      "Generate audio => ./TheMurderofRogerAckroyd/project_file/audio/69087-1_txt/0016_019.mp3\n",
      "Generate audio => ./TheMurderofRogerAckroyd/project_file/audio/69087-1_txt/0016_020.mp3\n",
      "Generate audio => ./TheMurderofRogerAckroyd/project_file/audio/69087-1_txt/0016_021.mp3\n",
      "Generate audio => ./TheMurderofRogerAckroyd/project_file/audio/69087-1_txt/0017_001.mp3\n",
      "Generate audio => ./TheMurderofRogerAckroyd/project_file/audio/69087-1_txt/0017_002.mp3\n",
      "Generate audio => ./TheMurderofRogerAckroyd/project_file/audio/69087-1_txt/0017_003.mp3\n",
      "Generate audio => ./TheMurderofRogerAckroyd/project_file/audio/69087-1_txt/0017_004.mp3\n",
      "Generate audio => ./TheMurderofRogerAckroyd/project_file/audio/69087-1_txt/0017_005.mp3\n",
      "Generate audio => ./TheMurderofRogerAckroyd/project_file/audio/69087-1_txt/0017_006.mp3\n",
      "Generate audio => ./TheMurderofRogerAckroyd/project_file/audio/69087-1_txt/0017_007.mp3\n",
      "Generate audio => ./TheMurderofRogerAckroyd/project_file/audio/69087-1_txt/0017_008.mp3\n",
      "Generate audio => ./TheMurderofRogerAckroyd/project_file/audio/69087-1_txt/0017_009.mp3\n",
      "Generate audio => ./TheMurderofRogerAckroyd/project_file/audio/69087-1_txt/0017_010.mp3\n",
      "Generate audio => ./TheMurderofRogerAckroyd/project_file/audio/69087-1_txt/0017_011.mp3\n",
      "Generate audio => ./TheMurderofRogerAckroyd/project_file/audio/69087-1_txt/0017_012.mp3\n",
      "Generate audio => ./TheMurderofRogerAckroyd/project_file/audio/69087-1_txt/0017_013.mp3\n",
      "Generate audio => ./TheMurderofRogerAckroyd/project_file/audio/69087-1_txt/0017_014.mp3\n",
      "Generate audio => ./TheMurderofRogerAckroyd/project_file/audio/69087-1_txt/0017_015.mp3\n",
      "Generate audio => ./TheMurderofRogerAckroyd/project_file/audio/69087-1_txt/0017_016.mp3\n",
      "Generate audio => ./TheMurderofRogerAckroyd/project_file/audio/69087-1_txt/0017_017.mp3\n",
      "Generate audio => ./TheMurderofRogerAckroyd/project_file/audio/69087-1_txt/0017_018.mp3\n",
      "Generate audio => ./TheMurderofRogerAckroyd/project_file/audio/69087-1_txt/0017_019.mp3\n",
      "Generate audio => ./TheMurderofRogerAckroyd/project_file/audio/69087-1_txt/0017_020.mp3\n",
      "Generate audio => ./TheMurderofRogerAckroyd/project_file/audio/69087-1_txt/0017_021.mp3\n",
      "Generate audio => ./TheMurderofRogerAckroyd/project_file/audio/69087-1_txt/0017_022.mp3\n",
      "Generate audio => ./TheMurderofRogerAckroyd/project_file/audio/69087-1_txt/0017_023.mp3\n",
      "Generate audio => ./TheMurderofRogerAckroyd/project_file/audio/69087-1_txt/0017_024.mp3\n",
      "Generate audio => ./TheMurderofRogerAckroyd/project_file/audio/69087-1_txt/0017_025.mp3\n",
      "Generate audio => ./TheMurderofRogerAckroyd/project_file/audio/69087-1_txt/0017_026.mp3\n",
      "Generate audio => ./TheMurderofRogerAckroyd/project_file/audio/69087-1_txt/0018_001.mp3\n",
      "Generate audio => ./TheMurderofRogerAckroyd/project_file/audio/69087-1_txt/0018_002.mp3\n",
      "Generate audio => ./TheMurderofRogerAckroyd/project_file/audio/69087-1_txt/0018_003.mp3\n",
      "Generate audio => ./TheMurderofRogerAckroyd/project_file/audio/69087-1_txt/0018_004.mp3\n",
      "Generate audio => ./TheMurderofRogerAckroyd/project_file/audio/69087-1_txt/0018_005.mp3\n",
      "Generate audio => ./TheMurderofRogerAckroyd/project_file/audio/69087-1_txt/0018_006.mp3\n",
      "Generate audio => ./TheMurderofRogerAckroyd/project_file/audio/69087-1_txt/0018_007.mp3\n",
      "Generate audio => ./TheMurderofRogerAckroyd/project_file/audio/69087-1_txt/0018_008.mp3\n",
      "Generate audio => ./TheMurderofRogerAckroyd/project_file/audio/69087-1_txt/0018_009.mp3\n",
      "Generate audio => ./TheMurderofRogerAckroyd/project_file/audio/69087-1_txt/0018_010.mp3\n",
      "Generate audio => ./TheMurderofRogerAckroyd/project_file/audio/69087-1_txt/0018_011.mp3\n",
      "Generate audio => ./TheMurderofRogerAckroyd/project_file/audio/69087-1_txt/0018_012.mp3\n",
      "Generate audio => ./TheMurderofRogerAckroyd/project_file/audio/69087-1_txt/0018_013.mp3\n",
      "Generate audio => ./TheMurderofRogerAckroyd/project_file/audio/69087-1_txt/0019_001.mp3\n",
      "Generate audio => ./TheMurderofRogerAckroyd/project_file/audio/69087-1_txt/0019_002.mp3\n",
      "Generate audio => ./TheMurderofRogerAckroyd/project_file/audio/69087-1_txt/0019_003.mp3\n",
      "Generate audio => ./TheMurderofRogerAckroyd/project_file/audio/69087-1_txt/0019_004.mp3\n",
      "Generate audio => ./TheMurderofRogerAckroyd/project_file/audio/69087-1_txt/0019_005.mp3\n",
      "Generate audio => ./TheMurderofRogerAckroyd/project_file/audio/69087-1_txt/0019_006.mp3\n",
      "Generate audio => ./TheMurderofRogerAckroyd/project_file/audio/69087-1_txt/0019_007.mp3\n",
      "Generate audio => ./TheMurderofRogerAckroyd/project_file/audio/69087-1_txt/0019_008.mp3\n",
      "Generate audio => ./TheMurderofRogerAckroyd/project_file/audio/69087-1_txt/0019_009.mp3\n",
      "Generate audio => ./TheMurderofRogerAckroyd/project_file/audio/69087-1_txt/0019_010.mp3\n",
      "Generate audio => ./TheMurderofRogerAckroyd/project_file/audio/69087-1_txt/0019_011.mp3\n",
      "Generate audio => ./TheMurderofRogerAckroyd/project_file/audio/69087-1_txt/0019_012.mp3\n",
      "Generate audio => ./TheMurderofRogerAckroyd/project_file/audio/69087-1_txt/0019_013.mp3\n",
      "Generate audio => ./TheMurderofRogerAckroyd/project_file/audio/69087-1_txt/0019_014.mp3\n",
      "Generate audio => ./TheMurderofRogerAckroyd/project_file/audio/69087-1_txt/0019_015.mp3\n",
      "Generate audio => ./TheMurderofRogerAckroyd/project_file/audio/69087-1_txt/0019_016.mp3\n",
      "Generate audio => ./TheMurderofRogerAckroyd/project_file/audio/69087-1_txt/0019_017.mp3\n",
      "Generate audio => ./TheMurderofRogerAckroyd/project_file/audio/69087-1_txt/0019_018.mp3\n",
      "Generate audio => ./TheMurderofRogerAckroyd/project_file/audio/69087-1_txt/0019_019.mp3\n",
      "Generate audio => ./TheMurderofRogerAckroyd/project_file/audio/69087-1_txt/0020_001.mp3\n",
      "Generate audio => ./TheMurderofRogerAckroyd/project_file/audio/69087-1_txt/0020_002.mp3\n",
      "Generate audio => ./TheMurderofRogerAckroyd/project_file/audio/69087-1_txt/0020_003.mp3\n",
      "Generate audio => ./TheMurderofRogerAckroyd/project_file/audio/69087-1_txt/0020_004.mp3\n"
     ]
    },
    {
     "name": "stdout",
     "output_type": "stream",
     "text": [
      "Generate audio => ./TheMurderofRogerAckroyd/project_file/audio/69087-1_txt/0020_005.mp3\n",
      "Generate audio => ./TheMurderofRogerAckroyd/project_file/audio/69087-1_txt/0020_006.mp3\n",
      "Generate audio => ./TheMurderofRogerAckroyd/project_file/audio/69087-1_txt/0020_007.mp3\n",
      "Generate audio => ./TheMurderofRogerAckroyd/project_file/audio/69087-1_txt/0020_008.mp3\n",
      "Generate audio => ./TheMurderofRogerAckroyd/project_file/audio/69087-1_txt/0020_009.mp3\n",
      "Generate audio => ./TheMurderofRogerAckroyd/project_file/audio/69087-1_txt/0020_010.mp3\n",
      "Generate audio => ./TheMurderofRogerAckroyd/project_file/audio/69087-1_txt/0020_011.mp3\n",
      "Generate audio => ./TheMurderofRogerAckroyd/project_file/audio/69087-1_txt/0020_012.mp3\n",
      "Generate audio => ./TheMurderofRogerAckroyd/project_file/audio/69087-1_txt/0020_013.mp3\n",
      "Generate audio => ./TheMurderofRogerAckroyd/project_file/audio/69087-1_txt/0020_014.mp3\n",
      "Generate audio => ./TheMurderofRogerAckroyd/project_file/audio/69087-1_txt/0020_015.mp3\n",
      "Generate audio => ./TheMurderofRogerAckroyd/project_file/audio/69087-1_txt/0020_016.mp3\n",
      "Generate audio => ./TheMurderofRogerAckroyd/project_file/audio/69087-1_txt/0020_017.mp3\n",
      "Generate audio => ./TheMurderofRogerAckroyd/project_file/audio/69087-1_txt/0020_018.mp3\n",
      "Generate audio => ./TheMurderofRogerAckroyd/project_file/audio/69087-1_txt/0020_019.mp3\n",
      "Generate audio => ./TheMurderofRogerAckroyd/project_file/audio/69087-1_txt/0020_020.mp3\n",
      "Generate audio => ./TheMurderofRogerAckroyd/project_file/audio/69087-1_txt/0021_001.mp3\n",
      "Generate audio => ./TheMurderofRogerAckroyd/project_file/audio/69087-1_txt/0021_002.mp3\n",
      "Generate audio => ./TheMurderofRogerAckroyd/project_file/audio/69087-1_txt/0021_003.mp3\n",
      "Generate audio => ./TheMurderofRogerAckroyd/project_file/audio/69087-1_txt/0021_004.mp3\n",
      "Generate audio => ./TheMurderofRogerAckroyd/project_file/audio/69087-1_txt/0021_005.mp3\n",
      "Generate audio => ./TheMurderofRogerAckroyd/project_file/audio/69087-1_txt/0021_006.mp3\n",
      "Generate audio => ./TheMurderofRogerAckroyd/project_file/audio/69087-1_txt/0021_007.mp3\n",
      "Generate audio => ./TheMurderofRogerAckroyd/project_file/audio/69087-1_txt/0021_008.mp3\n",
      "Generate audio => ./TheMurderofRogerAckroyd/project_file/audio/69087-1_txt/0021_009.mp3\n",
      "Generate audio => ./TheMurderofRogerAckroyd/project_file/audio/69087-1_txt/0021_010.mp3\n",
      "Generate audio => ./TheMurderofRogerAckroyd/project_file/audio/69087-1_txt/0021_011.mp3\n",
      "Generate audio => ./TheMurderofRogerAckroyd/project_file/audio/69087-1_txt/0021_012.mp3\n",
      "Generate audio => ./TheMurderofRogerAckroyd/project_file/audio/69087-1_txt/0021_013.mp3\n",
      "Generate audio => ./TheMurderofRogerAckroyd/project_file/audio/69087-1_txt/0021_014.mp3\n",
      "Generate audio => ./TheMurderofRogerAckroyd/project_file/audio/69087-1_txt/0021_015.mp3\n",
      "Generate audio => ./TheMurderofRogerAckroyd/project_file/audio/69087-1_txt/0022_001.mp3\n",
      "Generate audio => ./TheMurderofRogerAckroyd/project_file/audio/69087-1_txt/0022_002.mp3\n",
      "Generate audio => ./TheMurderofRogerAckroyd/project_file/audio/69087-1_txt/0022_003.mp3\n",
      "Generate audio => ./TheMurderofRogerAckroyd/project_file/audio/69087-1_txt/0022_004.mp3\n",
      "Generate audio => ./TheMurderofRogerAckroyd/project_file/audio/69087-1_txt/0022_005.mp3\n",
      "Generate audio => ./TheMurderofRogerAckroyd/project_file/audio/69087-1_txt/0022_006.mp3\n",
      "Generate audio => ./TheMurderofRogerAckroyd/project_file/audio/69087-1_txt/0022_007.mp3\n",
      "Generate audio => ./TheMurderofRogerAckroyd/project_file/audio/69087-1_txt/0022_008.mp3\n",
      "Generate audio => ./TheMurderofRogerAckroyd/project_file/audio/69087-1_txt/0022_009.mp3\n",
      "Generate audio => ./TheMurderofRogerAckroyd/project_file/audio/69087-1_txt/0022_010.mp3\n",
      "Generate audio => ./TheMurderofRogerAckroyd/project_file/audio/69087-1_txt/0022_011.mp3\n",
      "Generate audio => ./TheMurderofRogerAckroyd/project_file/audio/69087-1_txt/0022_012.mp3\n",
      "Generate audio => ./TheMurderofRogerAckroyd/project_file/audio/69087-1_txt/0022_013.mp3\n",
      "Generate audio => ./TheMurderofRogerAckroyd/project_file/audio/69087-1_txt/0022_014.mp3\n",
      "Generate audio => ./TheMurderofRogerAckroyd/project_file/audio/69087-1_txt/0022_015.mp3\n",
      "Generate audio => ./TheMurderofRogerAckroyd/project_file/audio/69087-1_txt/0022_016.mp3\n",
      "Generate audio => ./TheMurderofRogerAckroyd/project_file/audio/69087-1_txt/0023_001.mp3\n",
      "Generate audio => ./TheMurderofRogerAckroyd/project_file/audio/69087-1_txt/0023_002.mp3\n",
      "Generate audio => ./TheMurderofRogerAckroyd/project_file/audio/69087-1_txt/0023_003.mp3\n",
      "Generate audio => ./TheMurderofRogerAckroyd/project_file/audio/69087-1_txt/0023_004.mp3\n",
      "Generate audio => ./TheMurderofRogerAckroyd/project_file/audio/69087-1_txt/0023_005.mp3\n",
      "Generate audio => ./TheMurderofRogerAckroyd/project_file/audio/69087-1_txt/0023_006.mp3\n",
      "Generate audio => ./TheMurderofRogerAckroyd/project_file/audio/69087-1_txt/0023_007.mp3\n",
      "Generate audio => ./TheMurderofRogerAckroyd/project_file/audio/69087-1_txt/0023_008.mp3\n",
      "Generate audio => ./TheMurderofRogerAckroyd/project_file/audio/69087-1_txt/0023_009.mp3\n",
      "Generate audio => ./TheMurderofRogerAckroyd/project_file/audio/69087-1_txt/0023_010.mp3\n",
      "Generate audio => ./TheMurderofRogerAckroyd/project_file/audio/69087-1_txt/0023_011.mp3\n",
      "Generate audio => ./TheMurderofRogerAckroyd/project_file/audio/69087-1_txt/0023_012.mp3\n",
      "Generate audio => ./TheMurderofRogerAckroyd/project_file/audio/69087-1_txt/0023_013.mp3\n",
      "Generate audio => ./TheMurderofRogerAckroyd/project_file/audio/69087-1_txt/0023_014.mp3\n",
      "Generate audio => ./TheMurderofRogerAckroyd/project_file/audio/69087-1_txt/0023_015.mp3\n",
      "Generate audio => ./TheMurderofRogerAckroyd/project_file/audio/69087-1_txt/0023_016.mp3\n",
      "Generate audio => ./TheMurderofRogerAckroyd/project_file/audio/69087-1_txt/0023_017.mp3\n",
      "Generate audio => ./TheMurderofRogerAckroyd/project_file/audio/69087-1_txt/0023_018.mp3\n",
      "Generate audio => ./TheMurderofRogerAckroyd/project_file/audio/69087-1_txt/0023_019.mp3\n",
      "Generate audio => ./TheMurderofRogerAckroyd/project_file/audio/69087-1_txt/0023_020.mp3\n",
      "Generate audio => ./TheMurderofRogerAckroyd/project_file/audio/69087-1_txt/0023_021.mp3\n",
      "Generate audio => ./TheMurderofRogerAckroyd/project_file/audio/69087-1_txt/0023_022.mp3\n",
      "Generate audio => ./TheMurderofRogerAckroyd/project_file/audio/69087-1_txt/0023_023.mp3\n",
      "Generate audio => ./TheMurderofRogerAckroyd/project_file/audio/69087-1_txt/0023_024.mp3\n",
      "Generate audio => ./TheMurderofRogerAckroyd/project_file/audio/69087-1_txt/0023_025.mp3\n",
      "Generate audio => ./TheMurderofRogerAckroyd/project_file/audio/69087-1_txt/0024_001.mp3\n",
      "Generate audio => ./TheMurderofRogerAckroyd/project_file/audio/69087-1_txt/0024_002.mp3\n",
      "Generate audio => ./TheMurderofRogerAckroyd/project_file/audio/69087-1_txt/0024_003.mp3\n",
      "Generate audio => ./TheMurderofRogerAckroyd/project_file/audio/69087-1_txt/0024_004.mp3\n",
      "Generate audio => ./TheMurderofRogerAckroyd/project_file/audio/69087-1_txt/0024_005.mp3\n",
      "Generate audio => ./TheMurderofRogerAckroyd/project_file/audio/69087-1_txt/0024_006.mp3\n",
      "Generate audio => ./TheMurderofRogerAckroyd/project_file/audio/69087-1_txt/0024_007.mp3\n",
      "Generate audio => ./TheMurderofRogerAckroyd/project_file/audio/69087-1_txt/0024_008.mp3\n",
      "Generate audio => ./TheMurderofRogerAckroyd/project_file/audio/69087-1_txt/0025_001.mp3\n",
      "Generate audio => ./TheMurderofRogerAckroyd/project_file/audio/69087-1_txt/0025_002.mp3\n",
      "Generate audio => ./TheMurderofRogerAckroyd/project_file/audio/69087-1_txt/0025_003.mp3\n",
      "Generate audio => ./TheMurderofRogerAckroyd/project_file/audio/69087-1_txt/0025_004.mp3\n",
      "Generate audio => ./TheMurderofRogerAckroyd/project_file/audio/69087-1_txt/0025_005.mp3\n",
      "Generate audio => ./TheMurderofRogerAckroyd/project_file/audio/69087-1_txt/0025_006.mp3\n",
      "Generate audio => ./TheMurderofRogerAckroyd/project_file/audio/69087-1_txt/0025_007.mp3\n",
      "Generate audio => ./TheMurderofRogerAckroyd/project_file/audio/69087-1_txt/0025_008.mp3\n",
      "Generate audio => ./TheMurderofRogerAckroyd/project_file/audio/69087-1_txt/0025_009.mp3\n",
      "Generate audio => ./TheMurderofRogerAckroyd/project_file/audio/69087-1_txt/0025_010.mp3\n",
      "Generate audio => ./TheMurderofRogerAckroyd/project_file/audio/69087-1_txt/0025_011.mp3\n",
      "Generate audio => ./TheMurderofRogerAckroyd/project_file/audio/69087-1_txt/0025_012.mp3\n",
      "Generate audio => ./TheMurderofRogerAckroyd/project_file/audio/69087-1_txt/0025_013.mp3\n",
      "Generate audio => ./TheMurderofRogerAckroyd/project_file/audio/69087-1_txt/0026_001.mp3\n"
     ]
    },
    {
     "name": "stdout",
     "output_type": "stream",
     "text": [
      "Generate audio => ./TheMurderofRogerAckroyd/project_file/audio/69087-1_txt/0026_002.mp3\n",
      "Generate audio => ./TheMurderofRogerAckroyd/project_file/audio/69087-1_txt/0026_003.mp3\n",
      "Generate audio => ./TheMurderofRogerAckroyd/project_file/audio/69087-1_txt/0026_004.mp3\n",
      "Generate audio => ./TheMurderofRogerAckroyd/project_file/audio/69087-1_txt/0026_005.mp3\n",
      "Generate audio => ./TheMurderofRogerAckroyd/project_file/audio/69087-1_txt/0026_006.mp3\n",
      "Generate audio => ./TheMurderofRogerAckroyd/project_file/audio/69087-1_txt/0026_007.mp3\n",
      "Generate audio => ./TheMurderofRogerAckroyd/project_file/audio/69087-1_txt/0027_001.mp3\n",
      "Generate audio => ./TheMurderofRogerAckroyd/project_file/audio/69087-1_txt/0027_002.mp3\n",
      "Generate audio => ./TheMurderofRogerAckroyd/project_file/audio/69087-1_txt/0027_003.mp3\n",
      "Generate audio => ./TheMurderofRogerAckroyd/project_file/audio/69087-1_txt/0027_004.mp3\n",
      "Generate audio => ./TheMurderofRogerAckroyd/project_file/audio/69087-1_txt/0027_005.mp3\n",
      "Generate audio => ./TheMurderofRogerAckroyd/project_file/audio/69087-1_txt/0027_006.mp3\n",
      "Synthesize: 200 files\n",
      "./TheMurderofRogerAckroyd/project_file/audio/69087-1_txt/\n"
     ]
    }
   ],
   "source": [
    "# Split into files by chapter and characters break\n",
    "voice = texttospeech.VoiceSelectionParams(\n",
    "    language_code=\"en-GB\",\n",
    "    name=\"en-GB-Neural2-D\",\n",
    ")\n",
    "\n",
    "audio_config = texttospeech.AudioConfig(\n",
    "    audio_encoding=texttospeech.AudioEncoding.MP3,\n",
    "    speaking_rate=0.9\n",
    ")\n",
    "print(test_tta.synthesize_txt_split(file_name, file_limit=200, voice=voice, audio_config=audio_config))\n"
   ]
  },
  {
   "cell_type": "code",
   "execution_count": 14,
   "id": "ab7994d6",
   "metadata": {},
   "outputs": [
    {
     "name": "stdout",
     "output_type": "stream",
     "text": [
      "Generate track list: ./TheMurderofRogerAckroyd/project_file/audio/69087-1_txt/track_list.txt [total: 505 files]\n"
     ]
    },
    {
     "name": "stderr",
     "output_type": "stream",
     "text": [
      "ffmpeg version 5.1.2 Copyright (c) 2000-2022 the FFmpeg developers\n",
      "  built with Apple clang version 14.0.0 (clang-1400.0.29.102)\n",
      "  configuration: --prefix=/usr/local/Cellar/ffmpeg/5.1.2 --enable-shared --enable-pthreads --enable-version3 --cc=clang --host-cflags= --host-ldflags= --enable-ffplay --enable-gnutls --enable-gpl --enable-libaom --enable-libbluray --enable-libdav1d --enable-libmp3lame --enable-libopus --enable-librav1e --enable-librist --enable-librubberband --enable-libsnappy --enable-libsrt --enable-libtesseract --enable-libtheora --enable-libvidstab --enable-libvmaf --enable-libvorbis --enable-libvpx --enable-libwebp --enable-libx264 --enable-libx265 --enable-libxml2 --enable-libxvid --enable-lzma --enable-libfontconfig --enable-libfreetype --enable-frei0r --enable-libass --enable-libopencore-amrnb --enable-libopencore-amrwb --enable-libopenjpeg --enable-libspeex --enable-libsoxr --enable-libzmq --enable-libzimg --disable-libjack --disable-indev=jack --enable-videotoolbox\n",
      "  libavutil      57. 28.100 / 57. 28.100\n",
      "  libavcodec     59. 37.100 / 59. 37.100\n",
      "  libavformat    59. 27.100 / 59. 27.100\n",
      "  libavdevice    59.  7.100 / 59.  7.100\n",
      "  libavfilter     8. 44.100 /  8. 44.100\n",
      "  libswscale      6.  7.100 /  6.  7.100\n",
      "  libswresample   4.  7.100 /  4.  7.100\n",
      "  libpostproc    56.  6.100 / 56.  6.100\n",
      "[mp3 @ 0x7f81ba70b740] Estimating duration from bitrate, this may be inaccurate\n",
      "Input #0, concat, from './TheMurderofRogerAckroyd/project_file/audio/69087-1_txt/track_list.txt':\n",
      "  Duration: N/A, start: 0.000000, bitrate: 32 kb/s\n",
      "  Stream #0:0: Audio: mp3, 24000 Hz, mono, fltp, 32 kb/s\n",
      "Output #0, mp3, to './TheMurderofRogerAckroyd/project_file/audio/69087-1_txt.mp3':\n",
      "  Metadata:\n",
      "    TSSE            : Lavf59.27.100\n",
      "  Stream #0:0: Audio: mp3, 24000 Hz, mono, fltp, 32 kb/s\n",
      "Stream mapping:\n",
      "  Stream #0:0 -> #0:0 (copy)\n",
      "Press [q] to stop, [?] for help\n",
      "[mp3 @ 0x7f81ba2046c0] Estimating duration from bitrate, this may be inaccurate\n",
      "[mp3 @ 0x7f81ba105400] Estimating duration from bitrate, this may be inaccurate\n",
      "[mp3 @ 0x7f81ba308b40] Estimating duration from bitrate, this may be inaccurate\n",
      "[mp3 @ 0x7f81ba204740] Estimating duration from bitrate, this may be inaccurate\n",
      "[mp3 @ 0x7f81b8f09200] Estimating duration from bitrate, this may be inaccurate\n",
      "[mp3 @ 0x7f81ba105400] Estimating duration from bitrate, this may be inaccurate\n",
      "[mp3 @ 0x7f81ba009c40] Estimating duration from bitrate, this may be inaccurate\n",
      "    Last message repeated 1 times\n",
      "[mp3 @ 0x7f81ba1055c0] Estimating duration from bitrate, this may be inaccurate\n",
      "[mp3 @ 0x7f81ba009c40] Estimating duration from bitrate, this may be inaccurate\n",
      "[mp3 @ 0x7f81ba2047c0] Estimating duration from bitrate, this may be inaccurate\n",
      "[mp3 @ 0x7f81ba105400] Estimating duration from bitrate, this may be inaccurate\n",
      "    Last message repeated 2 times\n",
      "[mp3 @ 0x7f81ba009c40] Estimating duration from bitrate, this may be inaccurate\n",
      "[mp3 @ 0x7f81b8f06000] Estimating duration from bitrate, this may be inaccurate\n",
      "[mp3 @ 0x7f81ba105440] Estimating duration from bitrate, this may be inaccurate\n",
      "[mp3 @ 0x7f81b8f06000] Estimating duration from bitrate, this may be inaccurate\n",
      "    Last message repeated 1 times\n",
      "[mp3 @ 0x7f81ba1055c0] Estimating duration from bitrate, this may be inaccurate\n",
      "[mp3 @ 0x7f81ba105400] Estimating duration from bitrate, this may be inaccurate\n",
      "    Last message repeated 1 times\n",
      "[mp3 @ 0x7f81ba009d40] Estimating duration from bitrate, this may be inaccurate\n",
      "[mp3 @ 0x7f81ba105400] Estimating duration from bitrate, this may be inaccurate\n",
      "    Last message repeated 6 times\n",
      "[mp3 @ 0x7f81ba204580] Estimating duration from bitrate, this may be inaccurate\n",
      "[mp3 @ 0x7f81ba009c40] Estimating duration from bitrate, this may be inaccurate\n",
      "[mp3 @ 0x7f81b8f06000] Estimating duration from bitrate, this may be inaccurate\n",
      "[mp3 @ 0x7f81ba404080] Estimating duration from bitrate, this may be inaccurate\n",
      "[mp3 @ 0x7f81ba2045c0] Estimating duration from bitrate, this may be inaccurate\n",
      "[mp3 @ 0x7f81ba204580] Estimating duration from bitrate, this may be inaccurate\n",
      "[mp3 @ 0x7f81b8f04e00] Estimating duration from bitrate, this may be inaccurate\n",
      "[mp3 @ 0x7f81ba204580] Estimating duration from bitrate, this may be inaccurate\n",
      "[mp3 @ 0x7f81ba105440] Estimating duration from bitrate, this may be inaccurate\n",
      "[mp3 @ 0x7f81ba204580] Estimating duration from bitrate, this may be inaccurate\n",
      "    Last message repeated 1 times\n",
      "[mp3 @ 0x7f81ba1055c0] Estimating duration from bitrate, this may be inaccurate\n",
      "[mp3 @ 0x7f81ba204800] Estimating duration from bitrate, this may be inaccurate\n",
      "[mp3 @ 0x7f81ba204580] Estimating duration from bitrate, this may be inaccurate\n",
      "[mp3 @ 0x7f81ba105440] Estimating duration from bitrate, this may be inaccurate\n",
      "[mp3 @ 0x7f81b8f04e00] Estimating duration from bitrate, this may be inaccurate\n",
      "[mp3 @ 0x7f81ba105400] Estimating duration from bitrate, this may be inaccurate\n",
      "    Last message repeated 2 times\n",
      "[mp3 @ 0x7f81ba009c40] Estimating duration from bitrate, this may be inaccurate\n",
      "[mp3 @ 0x7f81b8f04e00] Estimating duration from bitrate, this may be inaccurate\n",
      "[mp3 @ 0x7f81ba009c40] Estimating duration from bitrate, this may be inaccurate\n",
      "[mp3 @ 0x7f81b8f05040] Estimating duration from bitrate, this may be inaccurate\n",
      "[mp3 @ 0x7f81ba105400] Estimating duration from bitrate, this may be inaccurate\n",
      "[mp3 @ 0x7f81ba204580] Estimating duration from bitrate, this may be inaccurate\n",
      "[mp3 @ 0x7f81ba009c40] Estimating duration from bitrate, this may be inaccurate\n",
      "    Last message repeated 1 times\n",
      "[mp3 @ 0x7f81ba105400] Estimating duration from bitrate, this may be inaccurate\n",
      "[mp3 @ 0x7f81b8f04e00] Estimating duration from bitrate, this may be inaccurate\n",
      "[mp3 @ 0x7f81ba105400] Estimating duration from bitrate, this may be inaccurate\n",
      "[mp3 @ 0x7f81ba009c40] Estimating duration from bitrate, this may be inaccurate\n",
      "[mp3 @ 0x7f81ba204580] Estimating duration from bitrate, this may be inaccurate\n",
      "[mp3 @ 0x7f81ba009c40] Estimating duration from bitrate, this may be inaccurate\n",
      "[mp3 @ 0x7f81b8f04e00] Estimating duration from bitrate, this may be inaccurate\n",
      "[mp3 @ 0x7f81ba204580] Estimating duration from bitrate, this may be inaccurate\n",
      "    Last message repeated 1 times\n",
      "[mp3 @ 0x7f81ba009c40] Estimating duration from bitrate, this may be inaccurate\n",
      "[mp3 @ 0x7f81ba105400] Estimating duration from bitrate, this may be inaccurate\n",
      "[mp3 @ 0x7f81ba009c40] Estimating duration from bitrate, this may be inaccurate\n",
      "[mp3 @ 0x7f81ba105400] Estimating duration from bitrate, this may be inaccurate\n",
      "[mp3 @ 0x7f81ba204580] Estimating duration from bitrate, this may be inaccurate\n",
      "[mp3 @ 0x7f81ba404180] Estimating duration from bitrate, this may be inaccurate\n",
      "[mp3 @ 0x7f81ba204580] Estimating duration from bitrate, this may be inaccurate\n",
      "[mp3 @ 0x7f81b8f04e00] Estimating duration from bitrate, this may be inaccurate\n",
      "[mp3 @ 0x7f81ba204580] Estimating duration from bitrate, this may be inaccurate\n",
      "[mp3 @ 0x7f81ba70b640] Estimating duration from bitrate, this may be inaccurate\n",
      "[mp3 @ 0x7f81b8f04e00] Estimating duration from bitrate, this may be inaccurate\n",
      "[mp3 @ 0x7f81ba404080] Estimating duration from bitrate, this may be inaccurate\n",
      "[mp3 @ 0x7f81ba204580] Estimating duration from bitrate, this may be inaccurate\n",
      "[mp3 @ 0x7f81ba308e40] Estimating duration from bitrate, this may be inaccurate\n",
      "    Last message repeated 1 times\n",
      "[mp3 @ 0x7f81ba204580] Estimating duration from bitrate, this may be inaccurate\n",
      "[mp3 @ 0x7f81ba009c40] Estimating duration from bitrate, this may be inaccurate\n",
      "[mp3 @ 0x7f81b8f09540] Estimating duration from bitrate, this may be inaccurate\n",
      "[mp3 @ 0x7f81ba009e80] Estimating duration from bitrate, this may be inaccurate\n",
      "[mp3 @ 0x7f81b8f09200] Estimating duration from bitrate, this may be inaccurate\n",
      "[mp3 @ 0x7f81ba009e00] Estimating duration from bitrate, this may be inaccurate\n",
      "[mp3 @ 0x7f81ba009c80] Estimating duration from bitrate, this may be inaccurate\n",
      "[mp3 @ 0x7f81ba009fc0] Estimating duration from bitrate, this may be inaccurate\n",
      "[mp3 @ 0x7f81ba204580] Estimating duration from bitrate, this may be inaccurate\n",
      "[mp3 @ 0x7f81ba2049c0] Estimating duration from bitrate, this may be inaccurate\n",
      "[mp3 @ 0x7f81ba204640] Estimating duration from bitrate, this may be inaccurate\n",
      "[mp3 @ 0x7f81ba105400] Estimating duration from bitrate, this may be inaccurate\n",
      "[mp3 @ 0x7f81ba204580] Estimating duration from bitrate, this may be inaccurate\n",
      "[mp3 @ 0x7f81ba009c40] Estimating duration from bitrate, this may be inaccurate\n",
      "[mp3 @ 0x7f81b8f04e00] Estimating duration from bitrate, this may be inaccurate\n",
      "[mp3 @ 0x7f81ba105440] Estimating duration from bitrate, this may be inaccurate\n",
      "[mp3 @ 0x7f81b8f04e00] Estimating duration from bitrate, this may be inaccurate\n",
      "[mp3 @ 0x7f81ba204580] Estimating duration from bitrate, this may be inaccurate\n",
      "    Last message repeated 1 times\n",
      "[mp3 @ 0x7f81ba009cc0] Estimating duration from bitrate, this may be inaccurate\n",
      "[mp3 @ 0x7f81ba009c40] Estimating duration from bitrate, this may be inaccurate\n",
      "[mp3 @ 0x7f81ba105400] Estimating duration from bitrate, this may be inaccurate\n",
      "[mp3 @ 0x7f81b8f09200] Estimating duration from bitrate, this may be inaccurate\n",
      "[mp3 @ 0x7f81b8f06000] Estimating duration from bitrate, this may be inaccurate\n",
      "[mp3 @ 0x7f81ba009c80] Estimating duration from bitrate, this may be inaccurate\n"
     ]
    },
    {
     "name": "stderr",
     "output_type": "stream",
     "text": [
      "    Last message repeated 1 times\n",
      "[mp3 @ 0x7f81ba204580] Estimating duration from bitrate, this may be inaccurate\n",
      "[mp3 @ 0x7f81b8f09200] Estimating duration from bitrate, this may be inaccurate\n",
      "[mp3 @ 0x7f81b8f04e00] Estimating duration from bitrate, this may be inaccurate\n",
      "[mp3 @ 0x7f81b8f06000] Estimating duration from bitrate, this may be inaccurate\n",
      "[mp3 @ 0x7f81ba009d40] Estimating duration from bitrate, this may be inaccurate\n",
      "[mp3 @ 0x7f81b8f09980] Estimating duration from bitrate, this may be inaccurate\n",
      "[mp3 @ 0x7f81b8f09200] Estimating duration from bitrate, this may be inaccurate\n",
      "[mp3 @ 0x7f81ba204580] Estimating duration from bitrate, this may be inaccurate\n",
      "[mp3 @ 0x7f81b8f09200] Estimating duration from bitrate, this may be inaccurate\n",
      "[mp3 @ 0x7f81ba204d80] Estimating duration from bitrate, this may be inaccurate\n",
      "[mp3 @ 0x7f81b8f0b100] Estimating duration from bitrate, this may be inaccurate\n",
      "[mp3 @ 0x7f81ba105400] Estimating duration from bitrate, this may be inaccurate\n",
      "[mp3 @ 0x7f81b8f06280] Estimating duration from bitrate, this may be inaccurate\n",
      "[mp3 @ 0x7f81ba105400] Estimating duration from bitrate, this may be inaccurate\n",
      "[mp3 @ 0x7f81ba009c40] Estimating duration from bitrate, this may be inaccurate\n",
      "[mp3 @ 0x7f81ba204580] Estimating duration from bitrate, this may be inaccurate\n",
      "[mp3 @ 0x7f81b8f0a7c0] Estimating duration from bitrate, this may be inaccurate\n",
      "[mp3 @ 0x7f81ba105400] Estimating duration from bitrate, this may be inaccurate\n",
      "[mp3 @ 0x7f81ba009c40] Estimating duration from bitrate, this may be inaccurate\n",
      "[mp3 @ 0x7f81b8f0a7c0] Estimating duration from bitrate, this may be inaccurate\n",
      "[mp3 @ 0x7f81ba105440] Estimating duration from bitrate, this may be inaccurate\n",
      "[mp3 @ 0x7f81ba009c40] Estimating duration from bitrate, this may be inaccurate\n",
      "[mp3 @ 0x7f81ba204700] Estimating duration from bitrate, this may be inaccurate\n",
      "[mp3 @ 0x7f81ba2045c0] Estimating duration from bitrate, this may be inaccurate\n",
      "[mp3 @ 0x7f81b8f0a7c0] Estimating duration from bitrate, this may be inaccurate\n",
      "    Last message repeated 1 times\n",
      "[mp3 @ 0x7f81ba009c40] Estimating duration from bitrate, this may be inaccurate\n",
      "[mp3 @ 0x7f81ba2049c0] Estimating duration from bitrate, this may be inaccurate\n",
      "[mp3 @ 0x7f81ba009c80] Estimating duration from bitrate, this may be inaccurate\n",
      "[mp3 @ 0x7f81ba105440] Estimating duration from bitrate, this may be inaccurate\n",
      "[mp3 @ 0x7f81ba009c40] Estimating duration from bitrate, this may be inaccurate\n",
      "[mp3 @ 0x7f81ba105400] Estimating duration from bitrate, this may be inaccurate\n",
      "    Last message repeated 2 times\n",
      "[mp3 @ 0x7f81ba009c40] Estimating duration from bitrate, this may be inaccurate\n",
      "[mp3 @ 0x7f81ba105400] Estimating duration from bitrate, this may be inaccurate\n",
      "[mp3 @ 0x7f81ba009c80] Estimating duration from bitrate, this may be inaccurate\n",
      "[mp3 @ 0x7f81ba204580] Estimating duration from bitrate, this may be inaccurate\n",
      "[mp3 @ 0x7f81ba105440] Estimating duration from bitrate, this may be inaccurate\n",
      "[mp3 @ 0x7f81ba105400] Estimating duration from bitrate, this may be inaccurate\n",
      "    Last message repeated 2 times\n",
      "[mp3 @ 0x7f81b8f0a7c0] Estimating duration from bitrate, this may be inaccurate\n",
      "[mp3 @ 0x7f81b8f0a7c0] Estimating duration from bitrate, this may be inaccurate\n",
      "[mp3 @ 0x7f81ba204900] Estimating duration from bitrate, this may be inaccurate\n",
      "[mp3 @ 0x7f81ba105400] Estimating duration from bitrate, this may be inaccurate\n",
      "[mp3 @ 0x7f81b8f0b280] Estimating duration from bitrate, this may be inaccurate\n",
      "[mp3 @ 0x7f81ba204580] Estimating duration from bitrate, this may be inaccurate\n",
      "[mp3 @ 0x7f81ba009c40] Estimating duration from bitrate, this may be inaccurate\n",
      "[mp3 @ 0x7f81ba105400] Estimating duration from bitrate, this may be inaccurate\n",
      "[mp3 @ 0x7f81ba308b40] Estimating duration from bitrate, this may be inaccurate\n",
      "[mp3 @ 0x7f81ba204f40] Estimating duration from bitrate, this may be inaccurate\n",
      "[mp3 @ 0x7f81b8f06000] Estimating duration from bitrate, this may be inaccurate\n",
      "    Last message repeated 1 times\n",
      "[mp3 @ 0x7f81ba009c40] Estimating duration from bitrate, this may be inaccurate\n",
      "[mp3 @ 0x7f81ba105400] Estimating duration from bitrate, this may be inaccurate\n",
      "[mp3 @ 0x7f81ba204580] Estimating duration from bitrate, this may be inaccurate\n",
      "    Last message repeated 1 times\n",
      "[mp3 @ 0x7f81ba204a40] Estimating duration from bitrate, this may be inaccurate\n",
      "[mp3 @ 0x7f81ba2046c0] Estimating duration from bitrate, this may be inaccurate\n",
      "[mp3 @ 0x7f81ba009c40] Estimating duration from bitrate, this may be inaccurate\n",
      "[mp3 @ 0x7f81ba105400] Estimating duration from bitrate, this may be inaccurate\n",
      "[mp3 @ 0x7f81ba009e00] Estimating duration from bitrate, this may be inaccurate\n",
      "[mp3 @ 0x7f81ba105400] Estimating duration from bitrate, this may be inaccurate\n",
      "    Last message repeated 2 times\n",
      "[mp3 @ 0x7f81ba009e80] Estimating duration from bitrate, this may be inaccurate\n",
      "[mp3 @ 0x7f81ba105400] Estimating duration from bitrate, this may be inaccurate\n",
      "    Last message repeated 1 times\n",
      "[mp3 @ 0x7f81ba204580] Estimating duration from bitrate, this may be inaccurate\n",
      "[mp3 @ 0x7f81ba105400] Estimating duration from bitrate, this may be inaccurate\n",
      "[mp3 @ 0x7f81b8f0a7c0] Estimating duration from bitrate, this may be inaccurate\n",
      "[mp3 @ 0x7f81ba105400] Estimating duration from bitrate, this may be inaccurate\n",
      "    Last message repeated 1 times\n",
      "[mp3 @ 0x7f81ba204d40] Estimating duration from bitrate, this may be inaccurate\n",
      "[mp3 @ 0x7f81ba105400] Estimating duration from bitrate, this may be inaccurate\n",
      "    Last message repeated 2 times\n",
      "[mp3 @ 0x7f81ba009c40] Estimating duration from bitrate, this may be inaccurate\n",
      "[mp3 @ 0x7f81ba308d80] Estimating duration from bitrate, this may be inaccurate\n",
      "[mp3 @ 0x7f81ba1055c0] Estimating duration from bitrate, this may be inaccurate\n",
      "[mp3 @ 0x7f81ba009c40] Estimating duration from bitrate, this may be inaccurate\n",
      "[mp3 @ 0x7f81b8f06000] Estimating duration from bitrate, this may be inaccurate\n",
      "[mp3 @ 0x7f81b8f06340] Estimating duration from bitrate, this may be inaccurate\n",
      "[mp3 @ 0x7f81ba2045c0] Estimating duration from bitrate, this may be inaccurate\n",
      "[mp3 @ 0x7f81ba204580] Estimating duration from bitrate, this may be inaccurate\n",
      "    Last message repeated 1 times\n",
      "[mp3 @ 0x7f81ba009c40] Estimating duration from bitrate, this may be inaccurate\n",
      "[mp3 @ 0x7f81b8f0a7c0] Estimating duration from bitrate, this may be inaccurate\n",
      "[mp3 @ 0x7f81ba204580] Estimating duration from bitrate, this may be inaccurate\n",
      "    Last message repeated 1 times\n",
      "[mp3 @ 0x7f81ba504300] Estimating duration from bitrate, this may be inaccurate\n",
      "[mp3 @ 0x7f81ba504080] Estimating duration from bitrate, this may be inaccurate\n",
      "[mp3 @ 0x7f81ba009f80] Estimating duration from bitrate, this may be inaccurate\n",
      "[mp3 @ 0x7f81ba204580] Estimating duration from bitrate, this may be inaccurate\n",
      "[mp3 @ 0x7f81b8f09200] Estimating duration from bitrate, this may be inaccurate\n",
      "[mp3 @ 0x7f81ba105400] Estimating duration from bitrate, this may be inaccurate\n",
      "[mp3 @ 0x7f81ba009c40] Estimating duration from bitrate, this may be inaccurate\n",
      "[mp3 @ 0x7f81b8f09200] Estimating duration from bitrate, this may be inaccurate\n",
      "    Last message repeated 1 times\n",
      "[mp3 @ 0x7f81ba204800] Estimating duration from bitrate, this may be inaccurate\n",
      "[mp3 @ 0x7f81ba204b40] Estimating duration from bitrate, this may be inaccurate\n",
      "[mp3 @ 0x7f81b8f09200] Estimating duration from bitrate, this may be inaccurate\n",
      "[mp3 @ 0x7f81ba105400] Estimating duration from bitrate, this may be inaccurate\n",
      "[mp3 @ 0x7f81ba009c40] Estimating duration from bitrate, this may be inaccurate\n",
      "[mp3 @ 0x7f81ba308c00] Estimating duration from bitrate, this may be inaccurate\n",
      "[mp3 @ 0x7f81b8f06000] Estimating duration from bitrate, this may be inaccurate\n",
      "[mp3 @ 0x7f81ba308b40] Estimating duration from bitrate, this may be inaccurate\n",
      "[mp3 @ 0x7f81ba204580] Estimating duration from bitrate, this may be inaccurate\n",
      "[mp3 @ 0x7f81ba204b00] Estimating duration from bitrate, this may be inaccurate\n",
      "[mp3 @ 0x7f81ba204580] Estimating duration from bitrate, this may be inaccurate\n",
      "    Last message repeated 2 times\n",
      "[mp3 @ 0x7f81ba105400] Estimating duration from bitrate, this may be inaccurate\n",
      "    Last message repeated 1 times\n",
      "[mp3 @ 0x7f81b8f06000] Estimating duration from bitrate, this may be inaccurate\n",
      "[mp3 @ 0x7f81ba105400] Estimating duration from bitrate, this may be inaccurate\n",
      "[mp3 @ 0x7f81ba009c40] Estimating duration from bitrate, this may be inaccurate\n",
      "    Last message repeated 1 times\n",
      "[mp3 @ 0x7f81b8f06000] Estimating duration from bitrate, this may be inaccurate\n",
      "[mp3 @ 0x7f81ba204580] Estimating duration from bitrate, this may be inaccurate\n",
      "[mp3 @ 0x7f81ba2049c0] Estimating duration from bitrate, this may be inaccurate\n",
      "[mp3 @ 0x7f81ba009d40] Estimating duration from bitrate, this may be inaccurate\n",
      "[mp3 @ 0x7f81ba105440] Estimating duration from bitrate, this may be inaccurate\n",
      "[mp3 @ 0x7f81b8f06000] Estimating duration from bitrate, this may be inaccurate\n",
      "[mp3 @ 0x7f81ba009c40] Estimating duration from bitrate, this may be inaccurate\n",
      "[mp3 @ 0x7f81ba105440] Estimating duration from bitrate, this may be inaccurate\n",
      "[mp3 @ 0x7f81ba105400] Estimating duration from bitrate, this may be inaccurate\n",
      "    Last message repeated 1 times\n",
      "[mp3 @ 0x7f81ba009c40] Estimating duration from bitrate, this may be inaccurate\n"
     ]
    },
    {
     "name": "stderr",
     "output_type": "stream",
     "text": [
      "    Last message repeated 1 times\n",
      "[mp3 @ 0x7f81ba00a8c0] Estimating duration from bitrate, this may be inaccurate\n",
      "[mp3 @ 0x7f81b8f06000] Estimating duration from bitrate, this may be inaccurate\n",
      "    Last message repeated 2 times\n",
      "[mp3 @ 0x7f81ba504080] Estimating duration from bitrate, this may be inaccurate\n",
      "[mp3 @ 0x7f81ba009c40] Estimating duration from bitrate, this may be inaccurate\n",
      "    Last message repeated 1 times\n",
      "[mp3 @ 0x7f81ba00a080] Estimating duration from bitrate, this may be inaccurate\n",
      "[mp3 @ 0x7f81ba009dc0] Estimating duration from bitrate, this may be inaccurate\n",
      "[mp3 @ 0x7f81ba105400] Estimating duration from bitrate, this may be inaccurate\n",
      "[mp3 @ 0x7f81ba009c40] Estimating duration from bitrate, this may be inaccurate\n",
      "    Last message repeated 1 times\n",
      "[mp3 @ 0x7f81b8f06240] Estimating duration from bitrate, this may be inaccurate\n",
      "[mp3 @ 0x7f81ba105400] Estimating duration from bitrate, this may be inaccurate\n",
      "[mp3 @ 0x7f81b8f09200] Estimating duration from bitrate, this may be inaccurate\n",
      "[mp3 @ 0x7f81ba308d00] Estimating duration from bitrate, this may be inaccurate\n",
      "[mp3 @ 0x7f81ba204580] Estimating duration from bitrate, this may be inaccurate\n",
      "[mp3 @ 0x7f81ba009c80] Estimating duration from bitrate, this may be inaccurate\n",
      "[mp3 @ 0x7f81b8f09200] Estimating duration from bitrate, this may be inaccurate\n",
      "[mp3 @ 0x7f81ba70b580] Estimating duration from bitrate, this may be inaccurate\n",
      "[mp3 @ 0x7f81ba105440] Estimating duration from bitrate, this may be inaccurate\n",
      "[mp3 @ 0x7f81ba105400] Estimating duration from bitrate, this may be inaccurate\n",
      "[mp3 @ 0x7f81ba009c40] Estimating duration from bitrate, this may be inaccurate\n",
      "[mp3 @ 0x7f81ba105400] Estimating duration from bitrate, this may be inaccurate\n",
      "[mp3 @ 0x7f81ba009c40] Estimating duration from bitrate, this may be inaccurate\n",
      "[mp3 @ 0x7f81ba204680] Estimating duration from bitrate, this may be inaccurate\n",
      "[mp3 @ 0x7f81ba70b580] Estimating duration from bitrate, this may be inaccurate\n",
      "[mp3 @ 0x7f81ba105400] Estimating duration from bitrate, this may be inaccurate\n",
      "[mp3 @ 0x7f81ba009c40] Estimating duration from bitrate, this may be inaccurate\n",
      "[mp3 @ 0x7f81ba204580] Estimating duration from bitrate, this may be inaccurate\n",
      "[mp3 @ 0x7f81ba009c40] Estimating duration from bitrate, this may be inaccurate\n",
      "[mp3 @ 0x7f81ba204580] Estimating duration from bitrate, this may be inaccurate\n",
      "[mp3 @ 0x7f81ba009c40] Estimating duration from bitrate, this may be inaccurate\n",
      "[mp3 @ 0x7f81ba105400] Estimating duration from bitrate, this may be inaccurate\n",
      "[mp3 @ 0x7f81b8f0a7c0] Estimating duration from bitrate, this may be inaccurate\n",
      "[mp3 @ 0x7f81ba009c40] Estimating duration from bitrate, this may be inaccurate\n",
      "[mp3 @ 0x7f81ba105440] Estimating duration from bitrate, this may be inaccurate\n",
      "[mp3 @ 0x7f81b8f0a900] Estimating duration from bitrate, this may be inaccurate\n",
      "[mp3 @ 0x7f81ba009c40] Estimating duration from bitrate, this may be inaccurate\n",
      "[mp3 @ 0x7f81ba204580] Estimating duration from bitrate, this may be inaccurate\n",
      "[mp3 @ 0x7f81b8f0a7c0] Estimating duration from bitrate, this may be inaccurate\n",
      "[mp3 @ 0x7f81ba009c40] Estimating duration from bitrate, this may be inaccurate\n",
      "[mp3 @ 0x7f81ba105400] Estimating duration from bitrate, this may be inaccurate\n",
      "[mp3 @ 0x7f81ba009c40] Estimating duration from bitrate, this may be inaccurate\n",
      "[mp3 @ 0x7f81ba204580] Estimating duration from bitrate, this may be inaccurate\n",
      "    Last message repeated 1 times\n",
      "[mp3 @ 0x7f81ba009c40] Estimating duration from bitrate, this may be inaccurate\n",
      "[mp3 @ 0x7f81ba204740] Estimating duration from bitrate, this may be inaccurate\n",
      "[mp3 @ 0x7f81ba404080] Estimating duration from bitrate, this may be inaccurate\n",
      "[mp3 @ 0x7f81ba204580] Estimating duration from bitrate, this may be inaccurate\n",
      "    Last message repeated 1 times\n",
      "[mp3 @ 0x7f81b8f0a8c0] Estimating duration from bitrate, this may be inaccurate\n",
      "[mp3 @ 0x7f81ba009dc0] Estimating duration from bitrate, this may be inaccurate\n",
      "[mp3 @ 0x7f81ba308b40] Estimating duration from bitrate, this may be inaccurate\n",
      "[mp3 @ 0x7f81ba009c40] Estimating duration from bitrate, this may be inaccurate\n",
      "[mp3 @ 0x7f81b8f0a7c0] Estimating duration from bitrate, this may be inaccurate\n",
      "[mp3 @ 0x7f81ba105440] Estimating duration from bitrate, this may be inaccurate\n",
      "[mp3 @ 0x7f81ba204580] Estimating duration from bitrate, this may be inaccurate\n",
      "    Last message repeated 3 times\n",
      "[mp3 @ 0x7f81ba009c80] Estimating duration from bitrate, this may be inaccurate\n",
      "    Last message repeated 1 times\n",
      "[mp3 @ 0x7f81ba204580] Estimating duration from bitrate, this may be inaccurate\n",
      "[mp3 @ 0x7f81b8f06040] Estimating duration from bitrate, this may be inaccurate\n",
      "[mp3 @ 0x7f81ba2047c0] Estimating duration from bitrate, this may be inaccurate\n",
      "[mp3 @ 0x7f81ba105440] Estimating duration from bitrate, this may be inaccurate\n",
      "[mp3 @ 0x7f81ba204580] Estimating duration from bitrate, this may be inaccurate\n",
      "    Last message repeated 1 times\n",
      "[mp3 @ 0x7f81b8f0a7c0] Estimating duration from bitrate, this may be inaccurate\n",
      "[mp3 @ 0x7f81ba009c40] Estimating duration from bitrate, this may be inaccurate\n",
      "[mp3 @ 0x7f81ba204580] Estimating duration from bitrate, this may be inaccurate\n",
      "[mp3 @ 0x7f81b8f06000] Estimating duration from bitrate, this may be inaccurate\n",
      "[mp3 @ 0x7f81ba1056c0] Estimating duration from bitrate, this may be inaccurate\n",
      "[mp3 @ 0x7f81b8f06000] Estimating duration from bitrate, this may be inaccurate\n",
      "[mp3 @ 0x7f81ba204580] Estimating duration from bitrate, this may be inaccurate\n",
      "[mp3 @ 0x7f81b8f06000] Estimating duration from bitrate, this may be inaccurate\n",
      "[mp3 @ 0x7f81ba404080] Estimating duration from bitrate, this may be inaccurate\n",
      "[mp3 @ 0x7f81ba009c40] Estimating duration from bitrate, this may be inaccurate\n",
      "[mp3 @ 0x7f81ba204580] Estimating duration from bitrate, this may be inaccurate\n",
      "[mp3 @ 0x7f81ba105400] Estimating duration from bitrate, this may be inaccurate\n",
      "[mp3 @ 0x7f81ba204580] Estimating duration from bitrate, this may be inaccurate\n",
      "[mp3 @ 0x7f81ba009cc0] Estimating duration from bitrate, this may be inaccurate\n",
      "[mp3 @ 0x7f81ba009c80] Estimating duration from bitrate, this may be inaccurate\n",
      "[mp3 @ 0x7f81ba2047c0] Estimating duration from bitrate, this may be inaccurate\n",
      "[mp3 @ 0x7f81ba009c40] Estimating duration from bitrate, this may be inaccurate\n",
      "    Last message repeated 1 times\n",
      "[mp3 @ 0x7f81b8f0a7c0] Estimating duration from bitrate, this may be inaccurate\n",
      "    Last message repeated 1 times\n",
      "[mp3 @ 0x7f81ba009c40] Estimating duration from bitrate, this may be inaccurate\n",
      "[mp3 @ 0x7f81b8f0a7c0] Estimating duration from bitrate, this may be inaccurate\n",
      "[mp3 @ 0x7f81ba4040c0] Estimating duration from bitrate, this may be inaccurate\n",
      "[mp3 @ 0x7f81b8f09200] Estimating duration from bitrate, this may be inaccurate\n",
      "[mp3 @ 0x7f81ba009c40] Estimating duration from bitrate, this may be inaccurate\n",
      "[mp3 @ 0x7f81ba204580] Estimating duration from bitrate, this may be inaccurate\n",
      "    Last message repeated 1 times\n",
      "[mp3 @ 0x7f81ba105400] Estimating duration from bitrate, this may be inaccurate\n",
      "    Last message repeated 1 times\n",
      "[mp3 @ 0x7f81ba204580] Estimating duration from bitrate, this may be inaccurate\n",
      "[mp3 @ 0x7f81ba105400] Estimating duration from bitrate, this may be inaccurate\n",
      "    Last message repeated 3 times\n",
      "[mp3 @ 0x7f81ba204580] Estimating duration from bitrate, this may be inaccurate\n",
      "[mp3 @ 0x7f81ba105400] Estimating duration from bitrate, this may be inaccurate\n",
      "[mp3 @ 0x7f81ba009c40] Estimating duration from bitrate, this may be inaccurate\n",
      "[mp3 @ 0x7f81ba404180] Estimating duration from bitrate, this may be inaccurate\n",
      "[mp3 @ 0x7f81ba009c80] Estimating duration from bitrate, this may be inaccurate\n",
      "[mp3 @ 0x7f81ba70b580] Estimating duration from bitrate, this may be inaccurate\n",
      "[mp3 @ 0x7f81ba009c40] Estimating duration from bitrate, this may be inaccurate\n",
      "[mp3 @ 0x7f81ba105400] Estimating duration from bitrate, this may be inaccurate\n",
      "[mp3 @ 0x7f81ba009c40] Estimating duration from bitrate, this may be inaccurate\n",
      "[mp3 @ 0x7f81ba204580] Estimating duration from bitrate, this may be inaccurate\n",
      "    Last message repeated 1 times\n",
      "[mp3 @ 0x7f81b8f06240] Estimating duration from bitrate, this may be inaccurate\n",
      "[mp3 @ 0x7f81ba105400] Estimating duration from bitrate, this may be inaccurate\n",
      "[mp3 @ 0x7f81ba204580] Estimating duration from bitrate, this may be inaccurate\n",
      "[mp3 @ 0x7f81ba009c40] Estimating duration from bitrate, this may be inaccurate\n",
      "[mp3 @ 0x7f81ba1055c0] Estimating duration from bitrate, this may be inaccurate\n",
      "[mp3 @ 0x7f81ba105400] Estimating duration from bitrate, this may be inaccurate\n",
      "    Last message repeated 1 times\n",
      "[mp3 @ 0x7f81ba009c40] Estimating duration from bitrate, this may be inaccurate\n",
      "[mp3 @ 0x7f81ba2047c0] Estimating duration from bitrate, this may be inaccurate\n",
      "[mp3 @ 0x7f81ba009c40] Estimating duration from bitrate, this may be inaccurate\n",
      "[mp3 @ 0x7f81ba105400] Estimating duration from bitrate, this may be inaccurate\n"
     ]
    },
    {
     "name": "stderr",
     "output_type": "stream",
     "text": [
      "[mp3 @ 0x7f81ba204580] Estimating duration from bitrate, this may be inaccurate\n",
      "[mp3 @ 0x7f81b8f09540] Estimating duration from bitrate, this may be inaccurate\n",
      "[mp3 @ 0x7f81ba204680] Estimating duration from bitrate, this may be inaccurate\n",
      "[mp3 @ 0x7f81b8f09200] Estimating duration from bitrate, this may be inaccurate\n",
      "[mp3 @ 0x7f81ba4040c0] Estimating duration from bitrate, this may be inaccurate\n",
      "[mp3 @ 0x7f81ba204580] Estimating duration from bitrate, this may be inaccurate\n",
      "[mp3 @ 0x7f81ba2048c0] Estimating duration from bitrate, this may be inaccurate\n",
      "[mp3 @ 0x7f81ba70b5c0] Estimating duration from bitrate, this may be inaccurate\n",
      "[mp3 @ 0x7f81ba404080] Estimating duration from bitrate, this may be inaccurate\n",
      "[mp3 @ 0x7f81ba009cc0] Estimating duration from bitrate, this may be inaccurate\n",
      "[mp3 @ 0x7f81ba009c80] Estimating duration from bitrate, this may be inaccurate\n",
      "[mp3 @ 0x7f81ba009fc0] Estimating duration from bitrate, this may be inaccurate\n",
      "[mp3 @ 0x7f81ba105440] Estimating duration from bitrate, this may be inaccurate\n",
      "[mp3 @ 0x7f81ba404100] Estimating duration from bitrate, this may be inaccurate\n",
      "[mp3 @ 0x7f81ba105400] Estimating duration from bitrate, this may be inaccurate\n",
      "    Last message repeated 1 times\n",
      "[mp3 @ 0x7f81ba009c40] Estimating duration from bitrate, this may be inaccurate\n",
      "[mp3 @ 0x7f81ba00a080] Estimating duration from bitrate, this may be inaccurate\n",
      "[mp3 @ 0x7f81ba105440] Estimating duration from bitrate, this may be inaccurate\n",
      "[mp3 @ 0x7f81ba009e00] Estimating duration from bitrate, this may be inaccurate\n",
      "[mp3 @ 0x7f81b8f0ab40] Estimating duration from bitrate, this may be inaccurate\n",
      "[mp3 @ 0x7f81ba105400] Estimating duration from bitrate, this may be inaccurate\n",
      "[mp3 @ 0x7f81ba009c40] Estimating duration from bitrate, this may be inaccurate\n",
      "[mp3 @ 0x7f81b8f0a7c0] Estimating duration from bitrate, this may be inaccurate\n",
      "[mp3 @ 0x7f81ba204580] Estimating duration from bitrate, this may be inaccurate\n",
      "[mp3 @ 0x7f81ba70b580] Estimating duration from bitrate, this may be inaccurate\n",
      "[mp3 @ 0x7f81ba204580] Estimating duration from bitrate, this may be inaccurate\n",
      "[mp3 @ 0x7f81b8f0a7c0] Estimating duration from bitrate, this may be inaccurate\n",
      "[mp3 @ 0x7f81ba204580] Estimating duration from bitrate, this may be inaccurate\n",
      "[mp3 @ 0x7f81ba105400] Estimating duration from bitrate, this may be inaccurate\n",
      "    Last message repeated 3 times\n",
      "[mp3 @ 0x7f81ba204740] Estimating duration from bitrate, this may be inaccurate\n",
      "[mp3 @ 0x7f81ba009e00] Estimating duration from bitrate, this may be inaccurate\n",
      "[mp3 @ 0x7f81ba009c40] Estimating duration from bitrate, this may be inaccurate\n",
      "[mp3 @ 0x7f81b8f0a7c0] Estimating duration from bitrate, this may be inaccurate\n",
      "[mp3 @ 0x7f81ba204580] Estimating duration from bitrate, this may be inaccurate\n",
      "    Last message repeated 1 times\n",
      "[mp3 @ 0x7f81ba105440] Estimating duration from bitrate, this may be inaccurate\n",
      "[mp3 @ 0x7f81ba204580] Estimating duration from bitrate, this may be inaccurate\n",
      "    Last message repeated 1 times\n",
      "[mp3 @ 0x7f81b8f09400] Estimating duration from bitrate, this may be inaccurate\n",
      "[mp3 @ 0x7f81ba105440] Estimating duration from bitrate, this may be inaccurate\n",
      "[mp3 @ 0x7f81ba70b580] Estimating duration from bitrate, this may be inaccurate\n",
      "[mp3 @ 0x7f81b8f0a7c0] Estimating duration from bitrate, this may be inaccurate\n",
      "    Last message repeated 1 times\n",
      "[mp3 @ 0x7f81ba009c40] Estimating duration from bitrate, this may be inaccurate\n",
      "[mp3 @ 0x7f81ba1055c0] Estimating duration from bitrate, this may be inaccurate\n",
      "[mp3 @ 0x7f81ba009c40] Estimating duration from bitrate, this may be inaccurate\n",
      "[mp3 @ 0x7f81ba204d80] Estimating duration from bitrate, this may be inaccurate\n",
      "[mp3 @ 0x7f81b8f06000] Estimating duration from bitrate, this may be inaccurate\n",
      "[mp3 @ 0x7f81ba204580] Estimating duration from bitrate, this may be inaccurate\n",
      "[mp3 @ 0x7f81ba105400] Estimating duration from bitrate, this may be inaccurate\n",
      "[mp3 @ 0x7f81ba009c40] Estimating duration from bitrate, this may be inaccurate\n",
      "[mp3 @ 0x7f81b8f0a7c0] Estimating duration from bitrate, this may be inaccurate\n",
      "[mp3 @ 0x7f81ba204580] Estimating duration from bitrate, this may be inaccurate\n",
      "    Last message repeated 1 times\n",
      "[mp3 @ 0x7f81ba105440] Estimating duration from bitrate, this may be inaccurate\n",
      "[mp3 @ 0x7f81ba009c40] Estimating duration from bitrate, this may be inaccurate\n",
      "[mp3 @ 0x7f81ba308b40] Estimating duration from bitrate, this may be inaccurate\n",
      "[mp3 @ 0x7f81ba4041c0] Estimating duration from bitrate, this may be inaccurate\n",
      "[mp3 @ 0x7f81ba009c40] Estimating duration from bitrate, this may be inaccurate\n",
      "    Last message repeated 1 times\n",
      "[mp3 @ 0x7f81b8f09200] Estimating duration from bitrate, this may be inaccurate\n",
      "    Last message repeated 1 times\n",
      "[mp3 @ 0x7f81b8f098c0] Estimating duration from bitrate, this may be inaccurate\n",
      "[mp3 @ 0x7f81ba009cc0] Estimating duration from bitrate, this may be inaccurate\n",
      "[mp3 @ 0x7f81ba504080] Estimating duration from bitrate, this may be inaccurate\n",
      "[mp3 @ 0x7f81b8f09540] Estimating duration from bitrate, this may be inaccurate\n",
      "[mp3 @ 0x7f81ba204580] Estimating duration from bitrate, this may be inaccurate\n",
      "[mp3 @ 0x7f81ba105440] Estimating duration from bitrate, this may be inaccurate\n",
      "[mp3 @ 0x7f81b8f09580] Estimating duration from bitrate, this may be inaccurate\n",
      "[mp3 @ 0x7f81ba105400] Estimating duration from bitrate, this may be inaccurate\n",
      "[mp3 @ 0x7f81ba009c40] Estimating duration from bitrate, this may be inaccurate\n",
      "[mp3 @ 0x7f81ba105400] Estimating duration from bitrate, this may be inaccurate\n",
      "[mp3 @ 0x7f81ba009c40] Estimating duration from bitrate, this may be inaccurate\n",
      "[mp3 @ 0x7f81ba105400] Estimating duration from bitrate, this may be inaccurate\n",
      "[mp3 @ 0x7f81ba204700] Estimating duration from bitrate, this may be inaccurate\n",
      "[mp3 @ 0x7f81ba308b40] Estimating duration from bitrate, this may be inaccurate\n",
      "[mp3 @ 0x7f81ba105440] Estimating duration from bitrate, this may be inaccurate\n",
      "[mp3 @ 0x7f81ba204580] Estimating duration from bitrate, this may be inaccurate\n",
      "[mp3 @ 0x7f81b8f06000] Estimating duration from bitrate, this may be inaccurate\n",
      "[mp3 @ 0x7f81ba009c40] Estimating duration from bitrate, this may be inaccurate\n",
      "    Last message repeated 1 times\n",
      "[mp3 @ 0x7f81b8f06000] Estimating duration from bitrate, this may be inaccurate\n",
      "    Last message repeated 1 times\n",
      "[mp3 @ 0x7f81b8f06340] Estimating duration from bitrate, this may be inaccurate\n",
      "[mp3 @ 0x7f81ba105440] Estimating duration from bitrate, this may be inaccurate\n",
      "[mp3 @ 0x7f81ba504080] Estimating duration from bitrate, this may be inaccurate\n",
      "[mp3 @ 0x7f81b8f0a7c0] Estimating duration from bitrate, this may be inaccurate\n",
      "[mp3 @ 0x7f81ba204700] Estimating duration from bitrate, this may be inaccurate\n",
      "[mp3 @ 0x7f81ba204580] Estimating duration from bitrate, this may be inaccurate\n",
      "[mp3 @ 0x7f81ba70b5c0] Estimating duration from bitrate, this may be inaccurate\n",
      "[mp3 @ 0x7f81ba105400] Estimating duration from bitrate, this may be inaccurate\n",
      "[mp3 @ 0x7f81ba204580] Estimating duration from bitrate, this may be inaccurate\n",
      "[mp3 @ 0x7f81ba2049c0] Estimating duration from bitrate, this may be inaccurate\n",
      "[mp3 @ 0x7f81ba105400] Estimating duration from bitrate, this may be inaccurate\n",
      "[mp3 @ 0x7f81ba009dc0] Estimating duration from bitrate, this may be inaccurate\n",
      "[mp3 @ 0x7f81ba204680] Estimating duration from bitrate, this may be inaccurate\n",
      "[mp3 @ 0x7f81b8f0a7c0] Estimating duration from bitrate, this may be inaccurate\n",
      "[mp3 @ 0x7f81b8f09900] Estimating duration from bitrate, this may be inaccurate\n",
      "[mp3 @ 0x7f81ba009c40] Estimating duration from bitrate, this may be inaccurate\n",
      "    Last message repeated 1 times\n",
      "[mp3 @ 0x7f81b8f06000] Estimating duration from bitrate, this may be inaccurate\n",
      "[mp3 @ 0x7f81ba204580] Estimating duration from bitrate, this may be inaccurate\n",
      "    Last message repeated 1 times\n",
      "[mp3 @ 0x7f81ba105400] Estimating duration from bitrate, this may be inaccurate\n",
      "[mp3 @ 0x7f81ba308b40] Estimating duration from bitrate, this may be inaccurate\n",
      "[mp3 @ 0x7f81ba2045c0] Estimating duration from bitrate, this may be inaccurate\n",
      "[mp3 @ 0x7f81ba009c40] Estimating duration from bitrate, this may be inaccurate\n",
      "[mp3 @ 0x7f81ba2045c0] Estimating duration from bitrate, this may be inaccurate\n",
      "[mp3 @ 0x7f81ba105440] Estimating duration from bitrate, this may be inaccurate\n",
      "[mp3 @ 0x7f81b8f0b280] Estimating duration from bitrate, this may be inaccurate\n",
      "[mp3 @ 0x7f81ba105400] Estimating duration from bitrate, this may be inaccurate\n",
      "    Last message repeated 1 times\n",
      "[mp3 @ 0x7f81ba009c40] Estimating duration from bitrate, this may be inaccurate\n",
      "[mp3 @ 0x7f81b8f0a7c0] Estimating duration from bitrate, this may be inaccurate\n",
      "[mp3 @ 0x7f81b8f06000] Estimating duration from bitrate, this may be inaccurate\n",
      "[mp3 @ 0x7f81ba204580] Estimating duration from bitrate, this may be inaccurate\n",
      "[mp3 @ 0x7f81b8f06000] Estimating duration from bitrate, this may be inaccurate\n",
      "[mp3 @ 0x7f81ba105400] Estimating duration from bitrate, this may be inaccurate\n",
      "    Last message repeated 1 times\n",
      "[mp3 @ 0x7f81ba70b580] Estimating duration from bitrate, this may be inaccurate\n",
      "[mp3 @ 0x7f81ba009c40] Estimating duration from bitrate, this may be inaccurate\n",
      "[mp3 @ 0x7f81ba105440] Estimating duration from bitrate, this may be inaccurate\n"
     ]
    },
    {
     "name": "stderr",
     "output_type": "stream",
     "text": [
      "[mp3 @ 0x7f81ba105400] Estimating duration from bitrate, this may be inaccurate\n",
      "[mp3 @ 0x7f81ba2047c0] Estimating duration from bitrate, this may be inaccurate\n",
      "[mp3 @ 0x7f81ba009c40] Estimating duration from bitrate, this may be inaccurate\n",
      "[mp3 @ 0x7f81b8f0a7c0] Estimating duration from bitrate, this may be inaccurate\n",
      "[mp3 @ 0x7f81ba009c40] Estimating duration from bitrate, this may be inaccurate\n",
      "size=  110336kB time=07:50:55.77 bitrate=  32.0kbits/s speed=4.35e+03x    \r",
      "[mp3 @ 0x7f81b8f0a8c0] Estimating duration from bitrate, this may be inaccurate\n",
      "[mp3 @ 0x7f81b8f06200] Estimating duration from bitrate, this may be inaccurate\n",
      "[mp3 @ 0x7f81ba009e00] Estimating duration from bitrate, this may be inaccurate\n",
      "[mp3 @ 0x7f81ba105440] Estimating duration from bitrate, this may be inaccurate\n",
      "[mp3 @ 0x7f81b8f06000] Estimating duration from bitrate, this may be inaccurate\n",
      "    Last message repeated 1 times\n",
      "[mp3 @ 0x7f81b8f06400] Estimating duration from bitrate, this may be inaccurate\n",
      "[mp3 @ 0x7f81ba105400] Estimating duration from bitrate, this may be inaccurate\n",
      "    Last message repeated 1 times\n",
      "[mp3 @ 0x7f81ba404180] Estimating duration from bitrate, this may be inaccurate\n",
      "size=  112793kB time=08:01:14.95 bitrate=  32.0kbits/s speed=4.35e+03x    \n",
      "video:0kB audio:112793kB subtitle:0kB other streams:0kB global headers:0kB muxing overhead: 0.000205%\n"
     ]
    },
    {
     "name": "stdout",
     "output_type": "stream",
     "text": [
      "Generate full audio: ./TheMurderofRogerAckroyd/project_file/audio/69087-1_txt.mp3\n",
      "./TheMurderofRogerAckroyd/project_file/audio/69087-1_txt.mp3\n"
     ]
    }
   ],
   "source": [
    "# Merge audio files => full length\n",
    "print(test_tta.merge_audio_files(file_name))"
   ]
  },
  {
   "cell_type": "code",
   "execution_count": 15,
   "id": "b382e4e1",
   "metadata": {},
   "outputs": [
    {
     "name": "stderr",
     "output_type": "stream",
     "text": [
      "ffmpeg version 5.1.2 Copyright (c) 2000-2022 the FFmpeg developers\n",
      "  built with Apple clang version 14.0.0 (clang-1400.0.29.102)\n",
      "  configuration: --prefix=/usr/local/Cellar/ffmpeg/5.1.2 --enable-shared --enable-pthreads --enable-version3 --cc=clang --host-cflags= --host-ldflags= --enable-ffplay --enable-gnutls --enable-gpl --enable-libaom --enable-libbluray --enable-libdav1d --enable-libmp3lame --enable-libopus --enable-librav1e --enable-librist --enable-librubberband --enable-libsnappy --enable-libsrt --enable-libtesseract --enable-libtheora --enable-libvidstab --enable-libvmaf --enable-libvorbis --enable-libvpx --enable-libwebp --enable-libx264 --enable-libx265 --enable-libxml2 --enable-libxvid --enable-lzma --enable-libfontconfig --enable-libfreetype --enable-frei0r --enable-libass --enable-libopencore-amrnb --enable-libopencore-amrwb --enable-libopenjpeg --enable-libspeex --enable-libsoxr --enable-libzmq --enable-libzimg --disable-libjack --disable-indev=jack --enable-videotoolbox\n",
      "  libavutil      57. 28.100 / 57. 28.100\n",
      "  libavcodec     59. 37.100 / 59. 37.100\n",
      "  libavformat    59. 27.100 / 59. 27.100\n",
      "  libavdevice    59.  7.100 / 59.  7.100\n",
      "  libavfilter     8. 44.100 /  8. 44.100\n",
      "  libswscale      6.  7.100 /  6.  7.100\n",
      "  libswresample   4.  7.100 /  4.  7.100\n",
      "  libpostproc    56.  6.100 / 56.  6.100\n",
      "Input #0, png_pipe, from './TheMurderofRogerAckroyd/project_file/image/69087-1_txt.png':\n",
      "  Duration: N/A, bitrate: N/A\n",
      "  Stream #0:0: Video: png, rgba(pc), 1280x720 [SAR 2835:2835 DAR 16:9], 25 fps, 25 tbr, 25 tbn\n",
      "Input #1, mp3, from './TheMurderofRogerAckroyd/project_file/audio/69087-1_txt.mp3':\n",
      "  Metadata:\n",
      "    encoder         : Lavf59.27.100\n",
      "  Duration: 08:01:14.95, start: 0.022042, bitrate: 32 kb/s\n",
      "  Stream #1:0: Audio: mp3, 24000 Hz, mono, fltp, 32 kb/s\n",
      "Stream mapping:\n",
      "  Stream #0:0 -> #0:0 (png (native) -> h264 (libx264))\n",
      "  Stream #1:0 -> #0:1 (mp3 (mp3float) -> aac (native))\n",
      "Press [q] to stop, [?] for help\n",
      "[libx264 @ 0x7f83a2106040] using SAR=1/1\n",
      "[libx264 @ 0x7f83a2106040] using cpu capabilities: MMX2 SSE2Fast SSSE3 SSE4.2 AVX FMA3 BMI2 AVX2\n",
      "[libx264 @ 0x7f83a2106040] profile High, level 3.1, 4:2:0, 8-bit\n",
      "[libx264 @ 0x7f83a2106040] 264 - core 164 r3095 baee400 - H.264/MPEG-4 AVC codec - Copyleft 2003-2022 - http://www.videolan.org/x264.html - options: cabac=1 ref=3 deblock=1:-3:-3 analyse=0x3:0x113 me=hex subme=7 psy=1 psy_rd=2.00:0.70 mixed_ref=1 me_range=16 chroma_me=1 trellis=1 8x8dct=1 cqm=0 deadzone=21,11 fast_pskip=1 chroma_qp_offset=-4 threads=12 lookahead_threads=2 sliced_threads=0 nr=0 decimate=1 interlaced=0 bluray_compat=0 constrained_intra=0 bframes=3 b_pyramid=2 b_adapt=1 b_bias=0 direct=1 weightb=1 open_gop=0 weightp=2 keyint=250 keyint_min=25 scenecut=40 intra_refresh=0 rc_lookahead=40 rc=crf mbtree=1 crf=23.0 qcomp=0.60 qpmin=0 qpmax=69 qpstep=4 ip_ratio=1.40 aq=1:1.20\n",
      "[aac @ 0x7f83a21074c0] Too many bits 8192.000000 > 6144 per frame requested, clamping to max\n",
      "Output #0, mp4, to './TheMurderofRogerAckroyd/project_file/video/69087-1_txt.mp4':\n",
      "  Metadata:\n",
      "    encoder         : Lavf59.27.100\n",
      "  Stream #0:0: Video: h264 (avc1 / 0x31637661), yuv420p(tv, progressive), 1280x720 [SAR 1:1 DAR 16:9], q=2-31, 25 fps, 12800 tbn\n",
      "    Metadata:\n",
      "      encoder         : Lavc59.37.100 libx264\n",
      "    Side data:\n",
      "      cpb: bitrate max/min/avg: 0/0/0 buffer size: 0 vbv_delay: N/A\n",
      "  Stream #0:1: Audio: aac (LC) (mp4a / 0x6134706D), 24000 Hz, mono, fltp, 144 kb/s\n",
      "    Metadata:\n",
      "      encoder         : Lavc59.37.100 aac\n",
      "frame=721891 fps=107 q=28.0 size=  859648kB time=08:01:13.30 bitrate= 243.9kbits/s speed=4.27x    \r"
     ]
    },
    {
     "name": "stdout",
     "output_type": "stream",
     "text": [
      "Generate full video: ./TheMurderofRogerAckroyd/project_file/video/69087-1_txt.mp4\n",
      "./TheMurderofRogerAckroyd/project_file/video/69087-1_txt.mp4\n"
     ]
    },
    {
     "name": "stderr",
     "output_type": "stream",
     "text": [
      "frame=721930 fps=107 q=-1.0 Lsize=  877250kB time=08:01:17.08 bitrate= 248.9kbits/s speed=4.27x    \n",
      "video:508620kB audio:351192kB subtitle:0kB other streams:0kB global headers:0kB muxing overhead: 2.028173%\n",
      "[libx264 @ 0x7f83a2106040] frame I:2888  Avg QP:13.06  size:120567\n",
      "[libx264 @ 0x7f83a2106040] frame P:181926 Avg QP:12.61  size:   638\n",
      "[libx264 @ 0x7f83a2106040] frame B:537116 Avg QP:17.38  size:   105\n",
      "[libx264 @ 0x7f83a2106040] consecutive B-frames:  0.8%  0.0%  0.0% 99.2%\n",
      "[libx264 @ 0x7f83a2106040] mb I  I16..4:  6.6% 66.6% 26.8%\n",
      "[libx264 @ 0x7f83a2106040] mb P  I16..4:  0.0%  0.0%  0.0%  P16..4:  2.0%  0.3%  0.4%  0.0%  0.0%    skip:97.3%\n",
      "[libx264 @ 0x7f83a2106040] mb B  I16..4:  0.0%  0.0%  0.0%  B16..8:  2.1%  0.0%  0.0%  direct: 0.0%  skip:97.9%  L0:66.3% L1:33.6% BI: 0.1%\n",
      "[libx264 @ 0x7f83a2106040] 8x8 transform intra:66.6% inter:91.9%\n",
      "[libx264 @ 0x7f83a2106040] coded y,uvDC,uvAC intra: 94.0% 98.9% 97.3% inter: 0.3% 0.1% 0.0%\n",
      "[libx264 @ 0x7f83a2106040] i16 v,h,dc,p: 18% 16%  5% 61%\n",
      "[libx264 @ 0x7f83a2106040] i8 v,h,dc,ddl,ddr,vr,hd,vl,hu: 28% 31%  9%  3%  5%  5%  6%  5%  9%\n",
      "[libx264 @ 0x7f83a2106040] i4 v,h,dc,ddl,ddr,vr,hd,vl,hu: 17% 28%  7%  5%  8%  7% 11%  5% 12%\n",
      "[libx264 @ 0x7f83a2106040] i8c dc,h,v,p: 28% 34% 25% 12%\n",
      "[libx264 @ 0x7f83a2106040] Weighted P-Frames: Y:0.0% UV:0.0%\n",
      "[libx264 @ 0x7f83a2106040] ref P L0: 74.2%  0.1% 23.1%  2.6%\n",
      "[libx264 @ 0x7f83a2106040] ref B L0: 37.9% 62.0%  0.1%\n",
      "[libx264 @ 0x7f83a2106040] ref B L1: 99.4%  0.6%\n",
      "[libx264 @ 0x7f83a2106040] kb/s:144.29\n",
      "[aac @ 0x7f83a21074c0] Qavg: 65511.652\n"
     ]
    }
   ],
   "source": [
    "# Audio + Image => Video\n",
    "print(test_tta.merge_video_file(file_name))"
   ]
  },
  {
   "cell_type": "code",
   "execution_count": 13,
   "id": "004bc195",
   "metadata": {},
   "outputs": [
    {
     "name": "stdout",
     "output_type": "stream",
     "text": [
      "0:00:00 Chapter 1\n",
      "0:09:59 Chaptor 2\n",
      "0:26:00 Chaptor 3\n",
      "0:48:22 Chaptor 4\n",
      "1:18:38 Chaptor 5\n",
      "1:42:35 Chaptor 6\n",
      "1:58:38 Chaptor 7\n",
      "2:24:59 Chaptor 8\n",
      "2:46:35 Chaptor 9\n",
      "3:04:29 Chaptor 10\n",
      "3:32:53 Chaptor 11\n",
      "3:47:37 Chaptor 12\n",
      "4:05:24 Chaptor 13\n",
      "4:18:33 Chaptor 14\n",
      "4:40:00 Chaptor 15\n",
      "4:58:03 Chaptor 16\n",
      "5:17:10 Chaptor 17\n",
      "5:42:36 Chaptor 18\n",
      "5:54:24 Chaptor 19\n",
      "6:13:16 Chaptor 20\n",
      "6:33:04 Chaptor 21\n",
      "6:47:33 Chaptor 22\n",
      "7:02:45 Chaptor 23\n",
      "7:27:07 Chaptor 24\n",
      "7:35:04 Chaptor 25\n",
      "7:48:55 Chaptor 26\n",
      "7:55:39 Chaptor 27\n"
     ]
    }
   ],
   "source": [
    "print(test_tta.gen_youtube_chapter_marker(file_name))"
   ]
  },
  {
   "cell_type": "code",
   "execution_count": null,
   "id": "a692882a",
   "metadata": {},
   "outputs": [],
   "source": []
  }
 ],
 "metadata": {
  "kernelspec": {
   "display_name": "Python tts env",
   "language": "python",
   "name": "tts_env"
  },
  "language_info": {
   "codemirror_mode": {
    "name": "ipython",
    "version": 3
   },
   "file_extension": ".py",
   "mimetype": "text/x-python",
   "name": "python",
   "nbconvert_exporter": "python",
   "pygments_lexer": "ipython3",
   "version": "3.9.12"
  }
 },
 "nbformat": 4,
 "nbformat_minor": 5
}
